<?xml version="1.0" standalone="no"?>
<!DOCTYPE svg PUBLIC "-//W3C//DTD SVG 20010904//EN"
 "http://www.w3.org/TR/2001/REC-SVG-20010904/DTD/svg10.dtd">
<svg version="1.0" xmlns="http://www.w3.org/2000/svg"
 width="1200.000000pt" height="717.000000pt" viewBox="0 0 1200.000000 717.000000"
 preserveAspectRatio="xMidYMid meet">

<g transform="translate(0.000000,717.000000) scale(0.100000,-0.100000)"
fill="#000000" stroke="none">
<path d="M10430 4760 c0 -77 1 -81 40 -132 111 -147 197 -407 231 -700 l13
-107 25 7 c14 4 58 7 96 6 l71 -1 -4 36 c-44 504 -207 861 -435 956 l-37 15 0
-80z"/>
<path d="M8366 4809 c-213 -114 -356 -430 -408 -900 -15 -142 -15 -590 1 -724
45 -388 134 -635 282 -784 49 -49 148 -111 178 -111 18 0 14 155 -4 170 -30
25 -119 176 -152 258 -72 178 -108 372 -123 655 -8 171 0 423 20 583 36 288
125 544 236 681 32 39 34 46 34 117 0 85 -3 88 -64 55z"/>
<path d="M2292 4743 l3 -78 93 -3 92 -3 0 -844 0 -845 -87 0 -88 0 3 -80 4
-80 284 0 284 0 0 80 0 80 -100 0 -100 0 0 925 0 925 -195 0 -196 0 3 -77z"/>
<path d="M6752 4743 l3 -78 93 -3 92 -3 0 -274 c0 -151 -2 -275 -5 -275 -2 0
-40 12 -82 27 -69 24 -93 27 -208 28 -102 0 -142 -4 -185 -19 -153 -52 -309
-184 -374 -317 -60 -123 -78 -211 -80 -384 -1 -170 13 -241 69 -360 82 -173
283 -279 530 -279 118 0 200 16 292 59 l51 23 9 -36 9 -37 192 -3 192 -2 0 80
0 80 -105 0 -105 0 0 925 0 925 -195 0 -196 0 3 -77z m146 -774 l42 -11 -2
-455 -3 -455 -49 -19 c-89 -35 -228 -53 -316 -41 -196 28 -294 108 -342 281
-22 82 -24 232 -3 332 40 187 172 331 348 375 61 16 259 12 325 -7z"/>
<path d="M8700 4260 l0 -69 106 -3 105 -3 17 -30 c9 -16 20 -32 23 -35 10 -9
89 -129 89 -135 0 -3 19 -32 42 -63 46 -61 89 -124 263 -379 60 -89 142 -208
180 -263 39 -56 86 -125 105 -154 19 -30 53 -80 76 -112 110 -160 131 -191
137 -207 6 -15 26 -17 192 -17 l185 0 0 75 0 75 -119 0 -118 0 -30 48 c-42 65
-211 313 -227 333 -7 8 -34 49 -61 90 -26 41 -51 76 -56 77 -5 2 -9 8 -9 14 0
5 -20 37 -44 71 -46 65 -210 306 -399 589 l-112 168 -172 0 -173 0 0 -70z"/>
<path d="M9840 4273 c-19 -30 -50 -78 -69 -107 -138 -211 -191 -296 -191 -306
0 -7 19 -38 41 -71 l41 -58 82 115 c44 63 86 123 91 132 6 10 41 61 79 115
l69 97 99 0 98 0 0 70 0 70 -152 0 -153 -1 -35 -56z"/>
<path d="M1601 4169 c-269 -36 -491 -219 -565 -468 -23 -79 -39 -246 -32 -335
25 -304 155 -470 426 -543 93 -25 329 -23 465 5 98 20 210 56 219 71 3 4 -5
39 -17 79 -17 55 -26 71 -37 66 -50 -19 -171 -44 -270 -54 -326 -35 -503 53
-560 276 -37 143 -21 337 37 462 54 116 192 224 321 251 93 19 309 7 336 -19
4 -4 12 -68 16 -142 5 -73 9 -135 9 -137 1 -3 62 4 129 16 l32 5 -2 187 -3
186 -65 33 c-109 54 -292 80 -439 61z"/>
<path d="M3443 4160 c-188 -40 -362 -174 -442 -342 -54 -115 -73 -206 -73
-358 -1 -280 82 -448 282 -572 55 -34 178 -69 277 -81 360 -40 656 160 739
498 24 96 24 324 1 419 -28 112 -72 193 -146 267 -75 74 -125 104 -237 144
-69 24 -96 28 -219 31 -77 2 -159 -1 -182 -6z m278 -186 c141 -41 242 -136
291 -273 28 -79 36 -263 14 -354 -45 -192 -186 -327 -373 -358 -192 -32 -396
66 -469 225 -76 166 -67 411 19 558 32 55 121 139 175 167 98 50 241 65 343
35z"/>
<path d="M4410 4080 l0 -80 95 0 94 0 3 -457 c3 -441 4 -460 25 -515 39 -104
94 -155 208 -192 170 -55 345 -32 548 70 49 24 90 44 92 44 1 0 6 -21 10 -47
14 -103 -9 -93 212 -93 l194 0 -3 78 -3 77 -102 3 -103 3 0 594 0 595 -200 0
-200 0 0 -80 0 -80 95 0 95 0 0 -454 0 -453 -67 -31 c-147 -67 -291 -88 -418
-62 -73 15 -114 45 -147 109 l-28 53 0 499 0 499 -200 0 -200 0 0 -80z"/>
<path d="M10753 3670 c-42 -25 -63 -88 -43 -126 23 -43 60 -73 93 -76 66 -7
137 52 137 113 0 27 -36 86 -60 99 -30 16 -93 11 -127 -10z"/>
<path d="M9105 3320 c-48 -72 -93 -137 -99 -143 -7 -7 -23 -30 -36 -52 -18
-31 -80 -120 -126 -184 -2 -2 -48 -3 -104 -2 l-100 2 0 -76 0 -75 146 0 c103
0 149 4 157 13 14 13 170 246 176 262 2 5 22 33 43 61 21 28 38 54 38 58 0 4
18 34 40 66 22 32 40 62 40 65 0 3 -20 35 -44 71 l-44 66 -87 -132z"/>
<path d="M10715 3250 c-18 -211 -67 -430 -125 -555 -40 -86 -117 -212 -143
-234 -13 -10 -17 -31 -17 -92 l0 -78 28 8 c153 44 296 243 371 516 41 151 49
195 66 370 3 33 8 78 11 100 l4 40 -94 0 -95 0 -6 -75z"/>
</g>
</svg>
