<?xml version="1.0" standalone="no"?>
<!DOCTYPE svg PUBLIC "-//W3C//DTD SVG 20010904//EN"
 "http://www.w3.org/TR/2001/REC-SVG-20010904/DTD/svg10.dtd">
<svg version="1.0" xmlns="http://www.w3.org/2000/svg"
 width="554.000000pt" height="488.000000pt" viewBox="0 0 554.000000 488.000000"
 preserveAspectRatio="xMidYMid meet">

<g transform="translate(0.000000,488.000000) scale(0.100000,-0.100000)"
fill="#000000" stroke="none">
<path d="M803 4833 c-196 -103 -372 -318 -501 -613 -46 -106 -52 -122 -52
-138 0 -9 -7 -26 -15 -36 -8 -11 -15 -30 -15 -43 0 -13 -6 -36 -14 -51 -7 -15
-16 -44 -20 -66 -4 -21 -11 -46 -16 -55 -10 -20 -42 -169 -70 -331 -6 -36 -15
-91 -21 -122 -5 -32 -14 -104 -19 -160 -5 -57 -15 -139 -21 -183 -8 -54 -12
-249 -12 -610 0 -432 2 -554 16 -660 9 -71 21 -168 27 -215 27 -215 73 -450
120 -605 12 -38 25 -85 30 -104 5 -18 13 -38 19 -44 6 -6 11 -20 11 -32 0 -12
7 -30 15 -41 8 -10 15 -25 15 -32 1 -37 133 -277 206 -373 55 -71 201 -209
237 -221 15 -6 27 -14 27 -19 0 -5 5 -9 11 -9 5 0 30 -9 55 -21 25 -11 55 -19
67 -17 21 3 22 8 25 128 1 69 0 134 -3 145 -2 11 -21 38 -41 60 -30 34 -75 96
-119 166 -8 14 -44 86 -141 282 -8 16 -14 35 -14 44 0 8 -6 27 -14 41 -7 15
-21 54 -31 87 -10 33 -22 74 -27 90 -31 93 -76 316 -102 500 -37 264 -41 350
-41 825 0 460 3 535 36 805 27 217 66 429 105 565 9 30 23 80 31 110 9 30 22
73 30 95 9 22 22 58 30 80 58 157 156 342 243 459 l61 80 -3 136 c-3 111 -6
135 -18 138 -8 1 -48 -14 -87 -35z"/>
<path d="M4585 4859 c-4 -6 -6 -74 -6 -151 l2 -141 33 -41 c30 -37 70 -97 102
-151 29 -49 124 -246 124 -258 0 -6 7 -21 15 -31 8 -11 15 -29 15 -41 0 -12 4
-25 9 -30 4 -6 18 -44 30 -85 12 -41 27 -88 33 -105 5 -16 13 -48 17 -70 4
-22 12 -56 18 -75 30 -94 81 -411 102 -633 4 -48 11 -90 14 -94 4 -3 33 2 65
11 64 18 217 22 227 6 3 -5 15 -10 26 -10 17 0 19 7 19 73 -1 39 -5 104 -11
142 -5 39 -16 120 -24 180 -24 180 -50 320 -81 433 -48 178 -84 294 -96 307
-4 5 -8 15 -8 23 0 17 -15 50 -87 197 -56 114 -64 128 -125 217 -93 137 -220
253 -345 317 -48 24 -59 26 -68 10z"/>
<path d="M1664 3912 l-251 -2 -2 -122 c-2 -91 1 -123 11 -129 7 -5 90 -9 185
-9 167 0 173 -1 184 -22 6 -12 16 -27 21 -32 8 -10 46 -67 110 -165 10 -14 22
-36 28 -48 5 -13 14 -23 20 -23 5 0 12 -11 16 -25 3 -14 10 -25 15 -25 5 0 9
-4 9 -9 0 -6 30 -54 67 -108 37 -54 79 -117 95 -139 15 -23 28 -45 28 -48 0
-8 38 -63 58 -84 6 -7 12 -19 12 -27 0 -7 3 -15 8 -17 7 -3 99 -137 112 -163
13 -26 46 -71 57 -78 7 -4 13 -16 13 -27 0 -10 3 -20 8 -22 9 -4 52 -65 52
-74 0 -3 14 -23 30 -44 17 -21 30 -41 30 -45 0 -4 14 -24 30 -45 17 -21 30
-41 30 -44 0 -3 16 -29 35 -56 19 -27 35 -54 35 -59 0 -5 3 -11 8 -13 9 -4 52
-65 52 -74 0 -3 14 -23 30 -44 17 -21 30 -41 30 -45 0 -4 14 -24 30 -45 17
-21 30 -42 30 -47 0 -5 7 -18 15 -28 13 -17 76 -109 110 -163 70 -108 138
-211 150 -227 8 -10 15 -25 15 -31 0 -7 3 -14 8 -16 11 -5 52 -66 52 -77 0 -6
6 -14 13 -18 12 -8 32 -36 44 -63 3 -8 19 -31 35 -51 15 -20 28 -39 28 -42 0
-7 79 -129 113 -172 9 -13 17 -27 17 -33 0 -5 8 -16 18 -25 17 -15 55 -17 340
-17 177 0 323 3 323 8 8 40 5 229 -3 239 -8 10 -61 13 -205 13 -191 0 -233 6
-233 34 0 7 -9 21 -20 31 -11 10 -20 22 -20 26 0 4 -20 37 -45 73 -25 37 -45
68 -45 70 0 2 -52 82 -115 177 -64 96 -120 181 -125 189 -46 68 -80 122 -80
125 0 2 -20 33 -45 69 -25 37 -45 68 -45 70 0 3 -20 34 -45 70 -25 37 -45 69
-45 72 0 5 -40 65 -50 74 -11 10 -80 119 -80 125 0 4 -13 24 -30 45 -16 21
-30 40 -30 44 0 3 -19 33 -42 66 -24 34 -47 68 -53 78 -5 9 -21 34 -35 57 -13
22 -29 48 -35 57 -12 21 -200 303 -226 340 -10 15 -19 29 -19 32 0 3 -73 116
-140 216 -56 84 -140 214 -140 218 0 2 -12 21 -27 41 -16 20 -33 45 -40 56 -7
11 -26 43 -43 70 -17 28 -36 59 -43 70 -7 11 -20 31 -30 44 -20 28 -5 27 -373
23z"/>
<path d="M3587 3912 c-16 -2 -31 -11 -34 -20 -4 -9 -19 -33 -35 -53 -15 -20
-28 -42 -28 -47 0 -6 -28 -53 -62 -104 -35 -51 -72 -110 -83 -130 -11 -20 -39
-65 -62 -98 -24 -34 -43 -67 -43 -72 0 -6 -12 -27 -27 -47 -16 -20 -33 -45
-40 -56 -7 -11 -34 -55 -60 -98 -26 -43 -53 -87 -59 -98 -7 -12 -17 -26 -23
-32 -18 -18 -13 -55 12 -90 12 -18 25 -33 30 -35 4 -2 7 -7 7 -12 0 -18 74
-120 87 -120 7 0 18 11 23 25 5 14 15 32 22 41 32 38 33 39 84 124 15 25 40
61 56 81 15 20 28 42 28 48 0 6 5 11 10 11 6 0 14 8 18 18 4 9 39 64 77 120
39 57 75 111 80 120 6 9 22 33 38 53 15 20 27 40 27 44 0 4 14 24 30 45 17 21
30 41 30 44 0 4 10 21 22 39 13 18 24 33 24 35 1 2 82 4 180 5 l179 2 3 128
c3 126 2 127 -20 129 -47 3 -464 3 -491 0z"/>
<path d="M5190 2670 c-61 -34 -96 -83 -103 -141 -4 -28 -2 -59 2 -68 5 -9 7
-28 4 -42 -3 -16 1 -32 11 -42 9 -8 16 -20 16 -24 0 -12 56 -53 72 -53 7 0 22
-7 32 -15 28 -21 89 -18 138 7 48 24 88 56 88 71 0 6 7 18 16 28 11 12 15 38
15 94 0 56 -4 82 -15 94 -9 10 -16 22 -16 27 0 11 -54 54 -68 54 -5 0 -15 7
-22 15 -19 22 -126 19 -170 -5z"/>
<path d="M2287 2199 c-10 -10 -17 -22 -17 -25 0 -6 -77 -127 -127 -199 -16
-21 -38 -56 -50 -77 -12 -20 -26 -43 -33 -50 -19 -22 -80 -119 -80 -128 0 -5
-3 -10 -7 -12 -10 -4 -53 -65 -53 -74 0 -3 -12 -23 -27 -43 -16 -20 -32 -44
-38 -53 -9 -16 -71 -113 -150 -236 l-30 -47 -190 -5 -190 -5 2 -123 c1 -68 3
-125 5 -127 2 -2 122 -5 266 -5 l262 -2 20 24 c11 12 19 26 20 31 0 4 16 30
35 57 19 27 35 54 35 59 0 5 3 11 8 13 8 4 52 65 52 73 0 3 12 24 27 48 37 57
50 78 64 105 7 12 16 22 21 22 4 0 8 5 8 12 0 6 23 44 50 85 28 40 50 78 50
82 0 5 3 11 8 13 4 2 28 36 52 77 25 40 52 84 60 96 15 22 67 108 102 165 16
28 16 30 -8 65 -13 20 -24 38 -24 41 0 2 -16 27 -35 54 -19 27 -35 53 -35 56
0 3 -8 16 -18 29 -18 23 -19 23 -35 4z"/>
<path d="M5106 1963 c-4 -21 -9 -96 -13 -168 -3 -71 -12 -155 -19 -185 -8 -30
-14 -77 -14 -105 -1 -27 -7 -68 -15 -90 -8 -22 -15 -60 -15 -85 0 -25 -7 -56
-15 -70 -8 -14 -14 -39 -15 -57 0 -17 -5 -44 -11 -60 -7 -15 -15 -46 -20 -68
-4 -22 -19 -71 -34 -110 -15 -38 -29 -81 -32 -95 -3 -14 -12 -34 -19 -45 -8
-11 -14 -27 -14 -36 0 -9 -7 -22 -15 -29 -8 -7 -15 -23 -15 -35 0 -12 -7 -28
-15 -35 -8 -7 -15 -20 -15 -30 0 -10 -7 -23 -15 -30 -8 -7 -15 -20 -15 -30 0
-10 -7 -23 -15 -30 -8 -7 -15 -17 -15 -22 0 -5 -8 -20 -17 -33 -10 -12 -25
-33 -33 -45 -8 -13 -36 -52 -62 -86 l-48 -63 0 -141 c0 -148 3 -157 46 -125
10 8 25 15 33 15 19 0 120 63 159 99 18 17 36 31 38 31 10 0 74 73 96 109 12
20 27 41 34 46 14 12 73 102 85 129 5 12 20 39 34 61 13 22 24 47 25 56 0 9 7
22 15 29 8 7 15 21 15 32 0 11 7 26 15 34 8 9 15 28 15 43 0 16 7 34 15 41 8
7 15 25 15 39 0 15 7 36 15 47 8 10 15 30 15 44 0 14 7 38 15 54 8 15 15 40
15 55 1 14 9 51 20 81 11 30 20 69 20 85 0 17 7 48 15 70 8 22 14 58 15 80 0
22 7 62 15 89 8 27 15 81 15 120 0 39 7 92 15 119 14 46 24 322 12 334 -3 3
-16 -2 -29 -11 -30 -21 -182 -22 -218 -1 -42 24 -57 19 -64 -22z"/>
</g>
</svg>
